<svg width="64" height="64" viewBox="0 0 64 64" fill="none" xmlns="http://www.w3.org/2000/svg">
<rect width="64" height="64" rx="32" fill="#F0FDF4"/>
<path d="M45.3332 33.6666C45.3332 41.9999 39.4998 46.1666 32.5665 48.5833C32.2034 48.7063 31.8091 48.7004 31.4498 48.5666C24.4998 46.1666 18.6665 41.9999 18.6665 33.6666V21.9999C18.6665 21.5579 18.8421 21.134 19.1547 20.8214C19.4672 20.5089 19.8911 20.3333 20.3332 20.3333C23.6665 20.3333 27.8332 18.3333 30.7332 15.7999C31.0863 15.4983 31.5354 15.3325 31.9998 15.3325C32.4642 15.3325 32.9134 15.4983 33.2665 15.7999C36.1832 18.3499 40.3332 20.3333 43.6665 20.3333C44.1085 20.3333 44.5325 20.5089 44.845 20.8214C45.1576 21.134 45.3332 21.5579 45.3332 21.9999V33.6666Z" stroke="#16A34A" stroke-width="2.08333" stroke-linecap="round" stroke-linejoin="round"/>
<path d="M27 32.0001L30.3333 35.3334L37 28.6667" stroke="#16A34A" stroke-width="2.08333" stroke-linecap="round" stroke-linejoin="round"/>
</svg>
