<svg width="64" height="64" viewBox="0 0 64 64" fill="none" xmlns="http://www.w3.org/2000/svg">
<rect width="64" height="64" rx="32" fill="#FAF5FF"/>
<path d="M37.0002 15.3333H27.0002C26.0797 15.3333 25.3335 16.0794 25.3335 16.9999V20.3333C25.3335 21.2537 26.0797 21.9999 27.0002 21.9999H37.0002C37.9206 21.9999 38.6668 21.2537 38.6668 20.3333V16.9999C38.6668 16.0794 37.9206 15.3333 37.0002 15.3333Z" stroke="#9333EA" stroke-width="2.08333" stroke-linecap="round" stroke-linejoin="round"/>
<path d="M38.6665 18.6667H41.9998C42.8839 18.6667 43.7317 19.0179 44.3569 19.6431C44.982 20.2682 45.3332 21.116 45.3332 22.0001V45.3334C45.3332 46.2175 44.982 47.0653 44.3569 47.6904C43.7317 48.3156 42.8839 48.6667 41.9998 48.6667H21.9998C21.1158 48.6667 20.2679 48.3156 19.6428 47.6904C19.0177 47.0653 18.6665 46.2175 18.6665 45.3334V22.0001C18.6665 21.116 19.0177 20.2682 19.6428 19.6431C20.2679 19.0179 21.1158 18.6667 21.9998 18.6667H25.3332" stroke="#9333EA" stroke-width="2.08333" stroke-linecap="round" stroke-linejoin="round"/>
<path d="M27 35.3333L30.3333 38.6667L37 32" stroke="#9333EA" stroke-width="2.08333" stroke-linecap="round" stroke-linejoin="round"/>
</svg>
