<svg width="64" height="64" viewBox="0 0 64 64" fill="none" xmlns="http://www.w3.org/2000/svg">
<rect width="64" height="64" rx="32" fill="#EFF6FF"/>
<path d="M18.6665 44.4999V19.4999C18.6665 18.3948 19.1055 17.335 19.8869 16.5536C20.6683 15.7722 21.7281 15.3333 22.8332 15.3333H43.6665C44.1085 15.3333 44.5325 15.5088 44.845 15.8214C45.1576 16.134 45.3332 16.5579 45.3332 16.9999V46.9999C45.3332 47.4419 45.1576 47.8659 44.845 48.1784C44.5325 48.491 44.1085 48.6666 43.6665 48.6666H22.8332C21.7281 48.6666 20.6683 48.2276 19.8869 47.4462C19.1055 46.6648 18.6665 45.605 18.6665 44.4999ZM18.6665 44.4999C18.6665 43.3948 19.1055 42.335 19.8869 41.5536C20.6683 40.7722 21.7281 40.3333 22.8332 40.3333H45.3332" stroke="#2563EB" stroke-width="2.08333" stroke-linecap="round" stroke-linejoin="round"/>
<path d="M27 27.8333L30.3333 31.1667L37 24.5" stroke="#2563EB" stroke-width="2.08333" stroke-linecap="round" stroke-linejoin="round"/>
</svg>
