<svg width="64" height="64" viewBox="0 0 64 64" fill="none" xmlns="http://www.w3.org/2000/svg">
<rect width="64" height="64" rx="32" fill="#F0FDFA"/>
<path d="M18.4165 26.3667C18.1732 25.2709 18.2106 24.1314 18.5251 23.0539C18.8396 21.9764 19.4211 20.9957 20.2156 20.2029C21.0101 19.41 21.992 18.8306 23.0702 18.5183C24.1483 18.2061 25.2879 18.1711 26.3832 18.4167C26.986 17.4738 27.8165 16.6979 28.7981 16.1605C29.7797 15.623 30.8807 15.3413 31.9998 15.3413C33.1189 15.3413 34.22 15.623 35.2016 16.1605C36.1832 16.6979 37.0137 17.4738 37.6165 18.4167C38.7134 18.17 39.8549 18.2048 40.9348 18.5179C42.0147 18.8309 42.9979 19.4119 43.7929 20.2069C44.5879 21.0019 45.169 21.9851 45.482 23.065C45.795 24.1449 45.8298 25.2864 45.5832 26.3833C46.526 26.9862 47.3019 27.8167 47.8394 28.7982C48.3768 29.7798 48.6585 30.8809 48.6585 32C48.6585 33.1191 48.3768 34.2202 47.8394 35.2017C47.3019 36.1833 46.526 37.0138 45.5832 37.6167C45.8287 38.7119 45.7938 39.8515 45.4815 40.9297C45.1693 42.0078 44.5898 42.9897 43.797 43.7842C43.0041 44.5788 42.0234 45.1602 40.9459 45.4747C39.8684 45.7892 38.729 45.8266 37.6332 45.5833C37.0311 46.5298 36.2 47.309 35.2167 47.8489C34.2335 48.3887 33.1299 48.6718 32.0082 48.6718C30.8865 48.6718 29.7829 48.3887 28.7996 47.8489C27.8164 47.309 26.9852 46.5298 26.3832 45.5833C25.2879 45.8289 24.1483 45.7939 23.0702 45.4817C21.992 45.1694 21.0101 44.59 20.2156 43.7971C19.4211 43.0043 18.8396 42.0236 18.5251 40.9461C18.2106 39.8686 18.1732 38.7291 18.4165 37.6333C17.4664 37.0321 16.6839 36.2003 16.1416 35.2154C15.5993 34.2304 15.3149 33.1243 15.3149 32C15.3149 30.8757 15.5993 29.7696 16.1416 28.7846C16.6839 27.7997 17.4664 26.9679 18.4165 26.3667Z" stroke="#0D9488" stroke-width="2.08333" stroke-linecap="round" stroke-linejoin="round"/>
<path d="M27 31.9998L30.3333 35.3332L37 28.6665" stroke="#0D9488" stroke-width="2.08333" stroke-linecap="round" stroke-linejoin="round"/>
</svg>
