<svg width="25" height="24" viewBox="0 0 25 24" fill="none" xmlns="http://www.w3.org/2000/svg">
<path d="M4.52002 16.5C3.02002 17.76 2.52002 21.5 2.52002 21.5C2.52002 21.5 6.26002 21 7.52002 19.5C8.23002 18.66 8.22002 17.37 7.43002 16.59C7.04133 16.219 6.52931 16.0046 5.99225 15.988C5.45518 15.9714 4.9309 16.1537 4.52002 16.5Z" stroke="#F8FAFC" stroke-width="2" stroke-linecap="round" stroke-linejoin="round"/>
<path d="M12.02 15L9.02002 12C9.55216 10.6194 10.2222 9.29607 11.02 8.05C12.1852 6.18699 13.8076 4.65305 15.733 3.5941C17.6584 2.53514 19.8227 1.98637 22.02 2C22.02 4.72 21.24 9.5 16.02 13C14.7569 13.7987 13.4169 14.4687 12.02 15Z" stroke="#F8FAFC" stroke-width="2" stroke-linecap="round" stroke-linejoin="round"/>
<path d="M9.02002 12H4.02002C4.02002 12 4.57002 8.97 6.02002 8C7.64002 6.92 11.02 8 11.02 8" stroke="#F8FAFC" stroke-width="2" stroke-linecap="round" stroke-linejoin="round"/>
<path d="M12.02 15V20C12.02 20 15.05 19.45 16.02 18C17.1 16.38 16.02 13 16.02 13" stroke="#F8FAFC" stroke-width="2" stroke-linecap="round" stroke-linejoin="round"/>
</svg>
